PathFileType	4	(X/Y/Z)	FAIDC1_INITIAL_WALK01.trc	
DataRate	CameraRate	NumFrames	NumMarkers	Units	OrigDataRate	OrigDataStartFrame	OrigNumFrames
100	100	8	49	mm	100	272	113
Frame#	Time	RSH			LSH			C7			LELB			LWR			RELB			RWR			RASI			LASI			SACR			P1			P2			P3			LTHLP			LTHLD			LTHAP			LTHAD			LLEPI			LPAT			LMEPI			LTIAP			LTIAD			LTILAT			LLMAL			LMMAL			LHEEL			LMFS			LMFL			LP5MT			LP1MT			LTOE			RTHLP			RTHLD			RTHAP			RTHAD			RLEPI			RPAT			RMEPI			RTIAP			RTIAD			RTILAT			RLMAL			RMMAL			RHEEL			RMFS			RMFL			RP5MT			RP1MT			RTOE			
		X1	Y1	Z1	X2	Y2	Z2	X3	Y3	Z3	X4	Y4	Z4	X5	Y5	Z5	X6	Y6	Z6	X7	Y7	Z7	X8	Y8	Z8	X9	Y9	Z9	X10	Y10	Z10	X11	Y11	Z11	X12	Y12	Z12	X13	Y13	Z13	X14	Y14	Z14	X15	Y15	Z15	X16	Y16	Z16	X17	Y17	Z17	X18	Y18	Z18	X19	Y19	Z19	X20	Y20	Z20	X21	Y21	Z21	X22	Y22	Z22	X23	Y23	Z23	X24	Y24	Z24	X25	Y25	Z25	X26	Y26	Z26	X27	Y27	Z27	X28	Y28	Z28	X29	Y29	Z29	X30	Y30	Z30	X31	Y31	Z31	X32	Y32	Z32	X33	Y33	Z33	X34	Y34	Z34	X35	Y35	Z35	X36	Y36	Z36	X37	Y37	Z37	X38	Y38	Z38	X39	Y39	Z39	X40	Y40	Z40	X41	Y41	Z41	X42	Y42	Z42	X43	Y43	Z43	X44	Y44	Z44	X45	Y45	Z45	X46	Y46	Z46	X47	Y47	Z47	X48	Y48	Z48	X49	Y49	Z49	

29	0.28000	456.23737	1521.49963	175.49304	465.53503	1530.79895	-174.62033	378.64841	1557.20764	8.01971	427.50153	1181.81348	-297.22241	554.85498	961.32794	-290.37738	388.71960	1186.65222	288.61893	459.85196	940.54059	296.10663	479.28336	1042.72485	143.38048	500.29065	1052.30823	-130.90729	315.84784	1119.63745	-6.55426	315.25342	1100.10803	-57.77026	306.67920	1096.59937	44.90898	293.34302	1033.84888	-9.32867	456.81259	757.23901	-173.49069	461.10526	655.34802	-151.51160	550.21277	768.70953	-105.09485	543.27576	668.77478	-89.22504	459.49820	519.57227	-130.40009	532.39764	527.03137	-67.43027	455.94058	530.32709	-7.57996	478.09531	382.85052	-47.07895	448.60617	256.55463	-35.52753	423.06418	322.51923	-121.79001	385.26874	103.97076	-80.21280	407.80063	129.09097	11.24583	314.92010	95.10135	-43.65958	473.95752	93.37157	-10.82022	441.36032	70.97932	-84.20306	505.55502	48.99279	-100.60641	539.80371	48.57082	15.30794	593.97852	45.70601	-11.16516	491.68640	755.41998	186.49004	522.34509	646.48944	172.75439	584.51514	783.41705	134.66281	612.45032	676.17853	123.63727	536.64929	556.87622	161.48538	629.87689	537.91901	114.04771	559.37555	547.94098	34.68407	498.74808	427.09927	90.87036	375.26678	341.92224	84.25627	390.31613	446.26663	167.51749	219.53839	280.62524	128.27084	253.54761	272.63330	39.51567	170.80908	324.94348	81.32381	281.95313	198.08807	86.14290	238.03290	204.63286	138.11008	252.35730	145.96194	149.44504	286.46832	116.96753	48.65266	311.34961	79.15142	77.65660	
30	0.29000	468.90082	1522.52344	175.59354	478.18143	1532.18176	-174.44940	391.32779	1558.19885	7.98314	442.59662	1183.03394	-297.78381	576.69934	966.66077	-287.61163	397.37973	1188.56543	289.06091	465.35745	941.60675	297.56351	492.07623	1044.07666	142.91013	511.91855	1052.57556	-131.31171	328.37256	1120.73853	-6.70326	327.62970	1101.11157	-57.88168	319.28430	1097.83704	44.77985	305.74023	1035.06274	-9.24054	464.68832	757.81360	-173.47809	466.57037	655.87689	-151.76282	558.33380	767.54907	-105.19327	548.71729	667.37622	-89.21951	462.38705	519.75159	-130.64063	535.19092	526.45239	-67.78119	458.94974	530.76276	-7.69647	477.74277	382.40039	-47.68707	450.02115	256.81351	-35.63773	424.42935	322.96429	-121.86673	385.37570	104.61481	-79.95041	408.46896	129.51093	11.36621	315.27539	95.95007	-43.26752	474.29404	93.65987	-10.88351	441.33795	71.18953	-84.11938	505.51321	49.02579	-100.56900	539.85400	48.55516	15.24544	594.18274	45.57403	-11.19287	509.49130	758.59131	187.16196	542.75269	650.69580	173.62018	601.14270	788.59344	134.12302	631.48230	682.05890	123.22292	558.76147	560.76025	161.66443	652.33160	544.45367	114.41109	581.59802	553.03137	34.84575	524.76880	429.76123	91.09412	403.92734	340.58829	84.11562	415.52585	445.10083	167.85077	250.44312	273.68021	127.78914	285.04681	267.17950	39.20244	199.55511	315.44394	80.91771	317.00677	194.44202	85.95717	272.78992	198.92264	138.05580	290.21790	141.16679	149.46770	325.73459	113.56772	48.43831	352.79340	77.24277	77.79703	
31	0.30000	481.61053	1523.20264	175.70386	490.81024	1533.21570	-174.29248	404.09955	1558.87524	8.01599	457.57370	1183.92468	-298.32922	598.27698	971.93683	-284.73859	406.08591	1190.19592	289.67087	471.21219	942.46515	298.94113	504.84137	1045.02356	142.55093	524.34448	1053.09131	-132.12198	340.82941	1121.58203	-6.75943	339.42862	1102.13770	-57.93854	331.84180	1098.75085	44.78830	318.11816	1035.85571	-9.09119	472.54901	758.20190	-173.51074	472.15851	656.19360	-152.09439	566.30139	766.08899	-105.41214	554.57245	666.18939	-89.53436	465.43805	520.08545	-130.89755	538.20435	525.80750	-68.22073	462.32874	531.11810	-7.88972	480.37338	382.50726	-47.79166	450.93216	256.75360	-35.77057	425.86807	323.32227	-121.99490	385.62317	105.25147	-79.75864	409.21829	130.00989	11.48706	315.64532	96.92566	-42.85828	474.68399	93.87697	-10.88040	441.40903	71.43426	-84.01880	505.51508	49.05140	-100.51956	539.92700	48.54482	15.22646	594.40051	45.41528	-11.21783	527.02405	761.64374	187.76590	562.75568	654.37402	174.26389	617.60052	793.30328	133.69644	650.17499	687.59711	122.78787	580.36145	564.20026	161.79636	674.23920	550.79620	114.56732	602.38751	557.04797	35.69153	550.45215	431.98138	91.22574	432.89377	338.77014	83.88678	440.58456	443.34485	168.14001	282.00232	265.67621	127.14624	316.90765	260.85471	38.71005	228.98346	304.77536	80.29399	352.76166	190.24617	85.94354	308.32074	192.74084	138.33365	329.01141	136.14064	150.06128	366.51538	110.39489	49.41006	394.99924	75.27750	78.32321	
32	0.31000	494.30029	1523.48120	175.83896	503.42416	1533.88904	-174.18359	416.87744	1559.27417	7.99677	472.49506	1184.47632	-298.82928	619.59375	977.05383	-281.87567	414.86237	1191.57581	290.46729	477.50552	943.14478	300.26794	517.61011	1045.63599	142.18495	536.77625	1053.32166	-132.42847	353.21106	1122.06030	-6.66380	351.77722	1102.56958	-57.73700	344.34134	1099.25195	44.93617	330.41025	1036.33142	-8.84885	480.30118	758.49249	-173.54193	477.81339	656.26898	-152.38522	574.64886	765.04285	-105.57816	560.58777	664.99304	-90.06866	468.35358	520.10016	-130.96851	541.39807	525.14172	-68.72934	465.86392	531.38916	-8.10315	482.64706	382.55954	-48.07846	452.10849	256.84409	-35.85260	427.36768	323.72739	-122.16254	385.92087	105.86787	-79.54620	409.71875	130.38837	11.49454	315.97278	98.05659	-42.56439	475.11755	94.08152	-10.89084	441.47595	71.64451	-83.92679	505.37476	48.88570	-100.43726	540.00916	48.57428	15.23749	594.62183	45.26128	-11.24252	544.33630	764.35187	188.32451	582.17432	657.80322	174.73050	633.44006	797.43506	132.89816	668.25037	692.52930	122.30967	601.38220	567.18671	161.81808	695.41992	556.66187	114.66068	622.42200	560.54626	36.00601	575.96106	434.02356	91.28552	462.08807	336.21552	83.68843	465.50558	440.76559	168.37848	314.20184	256.84027	126.60814	350.14740	253.35602	38.78513	259.22449	292.89777	79.49023	388.99933	185.33252	85.99989	344.46512	185.66225	138.22984	368.17093	130.02145	149.87236	406.91986	106.33626	50.34360	437.91052	73.15733	79.17134	
33	0.32000	506.96689	1523.42761	175.94455	516.05048	1534.23511	-174.09848	429.72540	1559.38171	8.05960	487.33640	1184.71753	-299.41223	640.64233	982.13635	-278.93372	423.71634	1192.65186	291.32190	484.11945	943.64728	301.50308	530.38403	1045.89795	141.82541	547.65674	1052.97522	-133.11023	365.58417	1122.17261	-6.41878	363.91751	1102.70703	-57.49167	356.76910	1099.41284	45.16953	342.55368	1036.53857	-8.54994	487.97348	758.67877	-173.60147	483.27469	656.60327	-152.68875	582.38232	763.58813	-106.05511	566.53687	663.57635	-90.65454	471.40918	520.21899	-131.10855	544.66064	524.37360	-69.33817	469.51462	531.55328	-8.34914	484.75439	382.66833	-48.36057	454.32925	257.70535	-36.07758	428.92795	324.11389	-122.29944	386.20850	106.49569	-79.37677	410.40582	130.87160	11.60904	316.24030	99.00291	-42.10529	475.40781	94.28102	-11.01279	441.58804	71.89378	-83.82870	505.34653	48.85563	-100.42105	540.04370	48.49978	15.15251	594.84839	45.09705	-11.27475	561.28442	766.83264	188.99879	601.10065	660.98706	175.53580	649.09344	801.23669	132.13463	686.18811	697.24695	121.92812	621.80945	569.66626	161.76645	715.87756	562.24048	114.64952	642.31537	564.07068	36.53633	600.94397	435.44885	91.35866	491.47525	333.20343	83.76559	490.36807	437.37833	168.43887	347.03278	247.17590	125.93434	383.09149	245.41904	37.84714	290.32611	280.09241	78.58084	426.49948	180.18518	86.67490	380.89606	177.67119	137.67313	407.93585	123.93557	150.13284	448.73981	101.98187	50.82976	481.05002	70.70747	80.20261	
34	0.33000	519.61450	1523.09192	176.09700	528.72864	1534.24963	-173.99176	442.57843	1559.27527	8.10710	502.14819	1184.64258	-299.82617	661.30981	986.96661	-275.91382	432.69635	1193.49854	292.26956	491.07498	944.04724	302.72079	543.09711	1045.84998	141.51169	559.32843	1052.62769	-133.51956	377.87540	1122.01477	-6.08897	375.99173	1102.61804	-57.16794	369.12799	1099.26257	45.49071	354.81271	1036.33704	-8.23314	495.66364	758.77612	-173.61316	488.96609	656.76172	-153.06781	590.14282	762.03131	-106.44531	572.68347	662.17676	-91.30270	474.54028	520.33521	-131.32782	548.02869	523.63531	-70.04623	473.28183	531.70148	-8.60083	487.16129	382.62018	-48.65143	455.86453	257.94858	-36.14960	430.53998	324.53174	-122.48898	386.56845	107.20855	-79.22577	411.26440	131.44110	11.67891	316.91937	100.01579	-41.72946	475.74368	94.46720	-11.08475	441.74460	72.17110	-83.78729	505.32611	48.82556	-100.42599	540.08740	48.48659	15.07848	595.05151	44.95449	-11.31485	577.90723	768.98517	189.66803	619.44141	663.69293	176.02583	664.45886	804.46777	131.34293	703.18335	701.07648	121.42460	641.44586	571.67786	161.74155	735.47211	567.35236	114.52605	661.14734	566.99335	36.75777	625.67584	436.71228	91.23940	520.94812	329.44870	83.51215	515.07697	433.22903	168.41946	380.51172	236.74072	125.25507	417.44122	236.40880	37.23592	322.11139	266.43344	77.28714	463.43372	174.21353	87.03856	418.11844	169.58299	137.64127	447.96072	117.76431	150.64609	490.63907	97.42144	51.66971	524.45996	68.14146	81.42415	
35	0.34000	532.21350	1522.50183	176.26746	541.50818	1533.93311	-173.88483	455.47720	1558.92529	8.15448	516.91675	1184.26489	-300.08453	681.69940	991.71393	-272.86469	441.82172	1194.05505	293.25089	498.38205	944.17847	303.87686	555.90015	1045.50208	141.27528	571.01642	1052.12073	-133.81970	390.05640	1121.70386	-5.66805	388.00272	1102.35828	-56.76575	381.47858	1098.90686	45.90744	367.12027	1036.01294	-7.77803	503.42731	758.77203	-173.58377	494.80069	656.76294	-153.31595	598.16541	760.38007	-106.78708	578.78259	660.59119	-91.88077	477.90723	520.42529	-131.58615	551.80066	522.93854	-71.20490	477.17349	531.79578	-8.91028	489.73721	382.64667	-49.23441	457.48349	258.20700	-36.43988	432.25995	325.01047	-122.66513	386.99298	107.84787	-79.15311	412.02814	132.01132	11.71626	317.37628	101.25951	-41.68890	476.31534	94.76035	-11.22714	441.92596	72.46499	-83.75705	505.34921	48.81009	-100.43726	540.22327	48.68733	15.05702	595.26147	44.83147	-11.33691	594.17834	770.83258	190.27591	637.29596	666.04156	176.54295	679.52667	807.16479	130.54996	719.81860	704.68622	120.87389	660.21625	573.20190	161.83333	754.27478	571.99695	114.43895	679.07520	569.25018	36.99110	649.90314	437.55725	91.24886	550.66766	325.29276	83.28448	539.95544	428.18829	168.28487	414.71082	225.94373	124.75281	452.53772	226.85732	37.08899	355.05310	251.93874	76.14270	501.50684	167.97716	87.22324	455.93823	161.11363	137.66269	488.78110	111.03264	151.14169	533.04236	92.72248	52.37979	568.38086	65.65592	82.89273	
36	0.35000	544.87329	1521.58948	176.43999	554.37146	1533.32031	-173.79694	468.41055	1558.40576	8.28183	531.74231	1183.54907	-300.35583	701.74646	996.26569	-269.85529	451.06552	1194.39246	294.24408	506.00424	944.13867	304.99899	568.60278	1044.86987	141.09409	582.70367	1051.44031	-134.02869	402.34488	1121.19214	-5.17268	400.06131	1101.86475	-56.24652	393.89926	1098.32751	46.41650	379.12524	1035.54761	-7.34044	511.31934	758.70245	-173.44254	500.85196	656.77850	-153.64365	607.24365	758.88196	-107.31366	585.01801	658.99408	-92.48105	481.28064	520.49652	-131.85959	555.28845	522.02600	-71.96082	481.16843	531.96588	-9.18222	492.07764	382.79028	-49.52274	459.14297	258.52783	-36.63211	434.09222	325.48672	-122.86630	387.41443	108.55630	-79.11716	412.97354	132.59129	11.57524	318.01923	102.15512	-41.48224	476.89197	95.00011	-11.34769	442.15088	72.77723	-83.74460	505.39783	48.78739	-100.45239	540.39087	48.76929	14.91072	595.48950	44.75029	-11.37784	610.08221	772.29053	190.87225	654.48474	667.98938	177.00946	694.32379	809.37335	129.88513	735.88068	707.52502	120.25620	678.56750	574.42352	161.54953	772.17053	575.94330	114.39368	696.05493	570.97614	37.26292	673.65930	438.00430	91.18158	580.51245	320.66949	83.10699	564.49115	422.68234	168.38782	449.72412	214.39699	124.10683	487.27167	217.29518	36.75401	388.86908	236.81900	74.91176	539.93463	161.45056	87.59802	494.46777	152.42241	137.73901	530.24487	104.31228	151.84958	576.54919	88.29940	53.95975	612.81830	63.40010	84.51718	
